<svg width="44" height="57" viewBox="0 0 44 57" fill="none" xmlns="http://www.w3.org/2000/svg">
<path d="M38.399 46.9628C37.3861 46.9628 36.5574 47.2391 35.7286 47.7916L28.9144 40.609C30.2956 39.0436 31.1244 37.0178 31.1244 34.7157C31.1244 31.5848 29.4669 28.8223 26.9806 27.2569L34.8998 11.6026C35.5444 11.8788 36.2811 11.9709 37.0178 11.9709C40.3328 11.9709 43.0032 9.30048 43.0032 5.98546C43.0032 2.67044 40.3328 0 37.0178 0C33.7027 0 31.0323 2.67044 31.0323 5.98546C31.0323 8.10339 32.1373 9.94507 33.7027 10.958L25.7835 26.6123C24.7706 26.1519 23.6656 25.9677 22.4685 25.9677C20.0743 25.9677 17.8643 26.9806 16.2989 28.546L8.74798 22.1002C9.02423 21.5477 9.2084 20.811 9.2084 20.1664C9.2084 17.588 7.18255 15.5622 4.6042 15.5622C2.02585 15.5622 0 17.588 0 20.1664C0 22.7447 2.02585 24.7706 4.6042 24.7706C5.98546 24.7706 7.18255 24.2181 8.01131 23.2973L15.4701 29.651C14.4572 31.1244 13.8126 32.874 13.8126 34.8078C13.8126 37.1099 14.7334 39.1357 16.1147 40.7011L8.84006 48.6204C8.10339 48.1599 7.18255 47.7916 6.26171 47.7916C3.68336 47.7916 1.65751 49.8174 1.65751 52.3958C1.65751 54.9742 3.68336 57 6.26171 57C8.84006 57 10.8659 54.9742 10.8659 52.3958C10.8659 51.2908 10.4976 50.37 9.85299 49.5412L17.2197 41.622C18.6931 42.8191 20.6268 43.5557 22.6527 43.5557C24.7706 43.5557 26.6123 42.8191 28.1777 41.622L34.9919 48.8045C34.3473 49.5412 33.979 50.5541 33.979 51.6591C33.979 54.2375 36.0048 56.2633 38.5832 56.2633C41.1615 56.2633 43.1874 54.2375 43.1874 51.6591C43.1874 49.0808 40.9774 46.9628 38.399 46.9628Z" fill="#DADADA"/>
</svg>
