<svg width="30" height="30" viewBox="0 0 30 30" fill="none" xmlns="http://www.w3.org/2000/svg">
<path d="M15 5.84109C9.95019 5.84109 5.84113 9.94968 5.84113 15C5.84113 20.0503 9.95019 24.1584 15 24.1584C20.0499 24.1584 24.1585 20.0498 24.1585 15C24.1585 9.95015 20.0499 5.84109 15 5.84109ZM15 22.7522C10.725 22.7522 7.24738 19.2745 7.24738 15C7.24738 10.725 10.725 7.24734 15 7.24734C19.2746 7.24734 22.7522 10.725 22.7522 15C22.7522 19.2745 19.2746 22.7522 15 22.7522Z" fill="#706643"/>
<path d="M14.9999 4.78126C15.3885 4.78126 15.7031 4.46673 15.7031 4.07813V1.26001C15.7031 0.871416 15.3885 0.556885 14.9999 0.556885C14.6113 0.556885 14.2968 0.871416 14.2968 1.26001V4.07813C14.2968 4.46673 14.6113 4.78126 14.9999 4.78126Z" fill="#706643"/>
<path d="M14.9999 25.2188C14.6113 25.2188 14.2968 25.5337 14.2968 25.9219V28.7405C14.2968 29.1286 14.6113 29.4436 14.9999 29.4436C15.3885 29.4436 15.7031 29.1286 15.7031 28.7405V25.9219C15.7031 25.5337 15.3885 25.2188 14.9999 25.2188Z" fill="#706643"/>
<path d="M22.7231 7.98C22.9031 7.98 23.0831 7.91156 23.2204 7.77422L25.2131 5.78156C25.4878 5.50734 25.4878 5.06156 25.2131 4.78735C24.9384 4.51266 24.4936 4.51266 24.2189 4.78735L22.2262 6.78C21.9515 7.05422 21.9515 7.5 22.2262 7.77422C22.3631 7.91156 22.5431 7.98 22.7231 7.98Z" fill="#706643"/>
<path d="M6.78003 22.2258L4.78738 24.2184C4.51269 24.4931 4.51269 24.938 4.78738 25.2127C4.92472 25.35 5.10472 25.4184 5.28472 25.4184C5.46472 25.4184 5.64472 25.35 5.78206 25.2127L7.77472 23.22C8.04941 22.9453 8.04941 22.5005 7.77472 22.2258C7.50003 21.9511 7.05472 21.9511 6.78003 22.2258Z" fill="#706643"/>
<path d="M4.07813 14.2969H1.26001C0.871416 14.2969 0.556885 14.6114 0.556885 15C0.556885 15.3886 0.871416 15.7031 1.26001 15.7031H4.07813C4.46673 15.7031 4.78126 15.3886 4.78126 15C4.78126 14.6114 4.46673 14.2969 4.07813 14.2969Z" fill="#706643"/>
<path d="M28.7405 14.2969H25.9219C25.5337 14.2969 25.2188 14.6114 25.2188 15C25.2188 15.3886 25.5337 15.7031 25.9219 15.7031H28.7405C29.1286 15.7031 29.4436 15.3886 29.4436 15C29.4436 14.6114 29.1286 14.2969 28.7405 14.2969Z" fill="#706643"/>
<path d="M6.77993 7.77422C6.91727 7.91156 7.09727 7.98 7.27727 7.98C7.45727 7.98 7.63727 7.91156 7.77462 7.77422C8.0493 7.5 8.0493 7.05422 7.77462 6.78L5.78196 4.78735C5.50727 4.51266 5.06243 4.51266 4.78774 4.78735C4.51305 5.06156 4.51305 5.50734 4.78774 5.78156L6.77993 7.77422Z" fill="#706643"/>
<path d="M23.2199 22.2258C22.9453 21.9511 22.5004 21.9511 22.2257 22.2258C21.951 22.5005 21.951 22.9453 22.2257 23.22L24.2184 25.2127C24.3557 25.35 24.5357 25.4184 24.7157 25.4184C24.8957 25.4184 25.0757 25.35 25.2131 25.2127C25.4878 24.938 25.4878 24.4931 25.2131 24.2184L23.2199 22.2258Z" fill="#706643"/>
</svg>
