<svg width="96" height="96" viewBox="0 0 96 96" fill="none" xmlns="http://www.w3.org/2000/svg">
<path d="M94.1132 11.0081L84.9921 1.887C83.1444 0.0392957 80.1249 0.0392957 78.2773 1.887L70.625 9.5393C69.4766 10.6877 69.4766 12.5471 70.625 13.6955L82.309 25.3715C83.4574 26.5199 85.3168 26.5199 86.4652 25.3715L94.1175 17.7192C95.9613 15.8442 95.9609 12.8557 94.1132 11.0081Z" fill="#878787"/>
<path d="M0.5 80.883V92.563C0.5 94.1841 1.8164 95.5005 3.4375 95.5005H15.1175C15.8988 95.5005 16.6448 95.1919 17.1956 94.6412L75.5936 36.2192C76.742 35.0708 76.742 33.2114 75.5936 32.063L63.9376 20.407C62.7892 19.2586 60.9298 19.2586 59.7814 20.407L1.3594 78.805C0.80862 79.3557 0.5 80.1018 0.5 80.883Z" fill="#878787"/>
</svg>
