<svg width="70" height="70" viewBox="0 0 70 70" fill="none" xmlns="http://www.w3.org/2000/svg">
<path d="M35 0C28.0777 0 21.3108 2.05271 15.5551 5.89856C9.79933 9.74441 5.3133 15.2107 2.66423 21.6061C0.0151648 28.0015 -0.677952 35.0388 0.672531 41.8282C2.02301 48.6175 5.35644 54.8539 10.2513 59.7487C15.1461 64.6436 21.3825 67.977 28.1719 69.3275C34.9612 70.678 41.9985 69.9848 48.3939 67.3358C54.7893 64.6867 60.2556 60.2007 64.1014 54.4449C67.9473 48.6892 70 41.9223 70 35C70 25.7174 66.3125 16.815 59.7487 10.2513C53.185 3.68749 44.2826 0 35 0ZM31.7188 42.6562C31.7188 43.2364 31.4883 43.7928 31.0781 44.203C30.6678 44.6133 30.1114 44.8437 29.5313 44.8437C28.9511 44.8437 28.3947 44.6133 27.9845 44.203C27.5742 43.7928 27.3438 43.2364 27.3438 42.6562V27.3437C27.3438 26.7636 27.5742 26.2072 27.9845 25.7969C28.3947 25.3867 28.9511 25.1562 29.5313 25.1562C30.1114 25.1562 30.6678 25.3867 31.0781 25.7969C31.4883 26.2072 31.7188 26.7636 31.7188 27.3437V42.6562ZM42.6563 42.6562C42.6563 43.2364 42.4258 43.7928 42.0156 44.203C41.6053 44.6133 41.0489 44.8437 40.4688 44.8437C39.8886 44.8437 39.3322 44.6133 38.922 44.203C38.5117 43.7928 38.2813 43.2364 38.2813 42.6562V27.3437C38.2813 26.7636 38.5117 26.2072 38.922 25.7969C39.3322 25.3867 39.8886 25.1562 40.4688 25.1562C41.0489 25.1562 41.6053 25.3867 42.0156 25.7969C42.4258 26.2072 42.6563 26.7636 42.6563 27.3437V42.6562Z" fill="#BBBBBB"/>
</svg>
