<svg width="28" height="36" viewBox="0 0 28 36" fill="none" xmlns="http://www.w3.org/2000/svg">
<path d="M5.34836 35.6453H22.9484C25.3684 35.6453 27.3484 33.6653 27.3484 31.2453V18.0453C27.3484 15.6253 25.3684 13.6453 22.9484 13.6453V9.24531C22.9484 4.38335 19.0103 0.445312 14.1484 0.445312C9.2864 0.445312 5.34836 4.38335 5.34836 9.24531V13.6453C2.92836 13.6453 0.948364 15.6253 0.948364 18.0453V31.2453C0.948364 33.6653 2.92836 35.6453 5.34836 35.6453ZM14.1484 27.945C12.3223 27.945 10.8484 26.4709 10.8484 24.645C10.8484 22.819 12.3224 21.345 14.1484 21.345C15.9743 21.345 17.4484 22.819 17.4484 24.645C17.4484 26.4709 15.9743 27.945 14.1484 27.945ZM9.74836 9.24531C9.74836 6.82531 11.7284 4.84531 14.1484 4.84531C16.5684 4.84531 18.5484 6.82531 18.5484 9.24531V13.6453H9.74836V9.24531Z" fill="#BCBCBC"/>
</svg>
