<svg width="12" height="33" viewBox="0 0 12 33" fill="none" xmlns="http://www.w3.org/2000/svg">
<path d="M2.92802 18.4544V4.20606C2.92802 4.20606 3.27573 2.48728 4.0566 1.80783C4.6715 1.27279 5.17093 1.05657 5.98459 1.00842C6.93539 0.952149 7.57832 1.17346 8.28878 1.80783C8.99924 2.4422 9.32331 3.78285 9.32331 3.78285C9.32331 3.78285 9.18219 12.5293 9.18219 20.9467C9.18219 23.3516 11.7685 23.9092 11.2042 27.5771C10.7913 30.2615 8.69939 32.079 5.98459 31.9974C3.11609 31.9111 1 29.4124 1 26.5426C0.999997 23.2509 4.05661 21.9342 4.05661 21.9342C4.05661 21.9342 5.2358 20.7116 5.65543 20.0062C6.07505 19.3008 5.98459 14.1752 5.98459 14.1752" stroke="#532D4B" stroke-width="0.846435"/>
</svg>
