<svg width="13" height="16" viewBox="0 0 13 16" fill="none" xmlns="http://www.w3.org/2000/svg">
<path d="M2.26528 5.02488L2.26608 5.02405L6.5 0.713533L10.7339 5.02406L10.7347 5.02488C11.2982 5.59589 11.7327 6.25338 12.0399 7.00064C12.3465 7.74652 12.5 8.52748 12.5 9.34737C12.5 11.0727 11.9158 12.5179 10.7438 13.7131C9.57123 14.9089 8.16611 15.5 6.5 15.5C4.83389 15.5 3.42877 14.9089 2.25622 13.7131C1.0842 12.5179 0.5 11.0727 0.5 9.34737C0.5 8.52748 0.653465 7.74652 0.960102 7.00064C1.26731 6.25338 1.70181 5.59589 2.26528 5.02488Z" stroke="#355358"/>
</svg>
