<svg width="40" height="38" viewBox="0 0 40 38" fill="none" xmlns="http://www.w3.org/2000/svg">
<path d="M12.7544 1.12949C11.5742 0.864548 9.36589 0.977208 4.56863 1.73867C0.361399 2.40649 0.266357 12.3992 0.266357 12.3992C0.266357 12.3992 1.06587 11.0429 3.27413 10.7621C16.4475 9.08687 23.1104 10.3813 34.6467 10.3813C37.0453 10.3813 39.3678 12.4754 39.3678 12.4754C39.3678 12.4754 38.305 7.66493 35.0655 7.37355C27.8696 6.7263 20.8641 6.95474 18.4654 6.7263C16.8199 6.56958 14.62 1.54828 12.7544 1.12949Z" fill="#696969" stroke="#696969" stroke-width="0.304588"/>
<path d="M34.6467 36.8423C34.6467 36.8423 25.7712 37.6601 19.8742 37.6418C14.2889 37.6245 6.12968 36.8042 6.12968 36.8042C6.12968 36.8042 4.18793 36.6138 3.00765 35.7381C1.63701 34.7212 1.18013 32.8065 1.18013 32.8065C1.18013 32.8065 0.483889 30.7886 0.190207 25.6867C0.000512794 22.3914 0.456732 17.2725 0.456732 17.2725C0.456732 17.2725 0.624429 15.0488 1.56086 14.1124C2.70306 12.9702 4.64481 12.7418 4.64481 12.7418C4.64481 12.7418 13.9698 11.9717 19.8742 11.9803C25.4218 11.9884 34.0756 12.323 34.0756 12.323C34.0756 12.323 36.4041 12.6275 37.6164 13.7317C39.0632 15.0493 39.0632 17.1202 39.0632 17.1202C39.0632 17.1202 39.243 20.7567 39.2536 23.0216C39.2699 26.5148 38.454 31.9308 38.454 31.9308C38.454 31.9308 38.2902 33.4711 37.8068 34.2913C36.5504 36.4235 34.6467 36.8423 34.6467 36.8423Z" fill="#696969" stroke="#696969" stroke-width="0.304588"/>
<rect x="18.7319" y="16.7777" width="1.97982" height="15.534" rx="0.98991" fill="white"/>
<rect x="18.4222" y="17.5834" width="1.95488" height="9.40585" rx="0.977441" transform="rotate(-42.03 18.4222 17.5834)" fill="white"/>
<rect x="19.7183" y="16.3208" width="1.97982" height="9.40585" rx="0.98991" transform="rotate(42.8169 19.7183 16.3208)" fill="white"/>
</svg>
