<svg width="31" height="29" viewBox="0 0 31 29" fill="none" xmlns="http://www.w3.org/2000/svg">
<path d="M15.5013 7.7523C14.1876 7.7523 12.9033 8.14187 11.811 8.87174C10.7187 9.60162 9.8673 10.639 9.36455 11.8527C8.86181 13.0665 8.73026 14.402 8.98656 15.6905C9.24286 16.979 9.87549 18.1626 10.8044 19.0916C11.7334 20.0205 12.917 20.6531 14.2054 20.9094C15.4939 21.1657 16.8295 21.0342 18.0432 20.5314C19.257 20.0287 20.2944 19.1773 21.0242 18.085C21.7541 16.9927 22.1437 15.7084 22.1437 14.3947C22.1419 12.6336 21.4415 10.9451 20.1962 9.69983C18.9509 8.45454 17.2624 7.75413 15.5013 7.7523ZM15.5013 18.8229C14.6255 18.8229 13.7693 18.5632 13.0411 18.0766C12.3129 17.5901 11.7453 16.8985 11.4101 16.0893C11.075 15.2801 10.9873 14.3898 11.1581 13.5308C11.329 12.6718 11.7508 11.8827 12.3701 11.2634C12.9894 10.6441 13.7784 10.2224 14.6374 10.0515C15.4964 9.88065 16.3868 9.96834 17.1959 10.3035C18.0051 10.6387 18.6967 11.2063 19.1833 11.9345C19.6699 12.6627 19.9296 13.5189 19.9296 14.3947C19.9296 15.5691 19.463 16.6955 18.6326 17.5259C17.8021 18.3564 16.6758 18.8229 15.5013 18.8229ZM30.7151 11.5177C30.6843 11.3618 30.6203 11.2144 30.5274 11.0854C30.4345 10.9565 30.3149 10.8491 30.1768 10.7704L26.0489 8.41792L26.0322 3.76549C26.0317 3.60526 25.9965 3.44705 25.9289 3.30179C25.8612 3.15652 25.7629 3.02767 25.6406 2.92412C24.1432 1.6575 22.4189 0.686836 20.5592 0.063745C20.4128 0.014176 20.2576 -0.00416813 20.1036 0.00989402C19.9496 0.0239562 19.8003 0.0701128 19.6653 0.145391L15.5013 2.47299L11.3332 0.141239C11.1981 0.0655373 11.0486 0.0190321 10.8944 0.00472994C10.7401 -0.00957223 10.5846 0.00864687 10.4379 0.0582096C8.5796 0.685856 6.85721 1.66022 5.362 2.92965C5.2399 3.03305 5.14166 3.16168 5.07405 3.30669C5.00645 3.4517 4.97107 3.60964 4.97037 3.76964L4.94961 8.42622L0.821652 10.7787C0.683548 10.8574 0.56399 10.9648 0.471103 11.0937C0.378216 11.2227 0.314179 11.3701 0.283343 11.526C-0.0944477 13.4245 -0.0944477 15.3787 0.283343 17.2772C0.314179 17.4331 0.378216 17.5805 0.471103 17.7095C0.56399 17.8384 0.683548 17.9458 0.821652 18.0245L4.94961 20.377L4.96622 25.0294C4.96672 25.1896 5.002 25.3478 5.06961 25.4931C5.13723 25.6384 5.23557 25.7672 5.35784 25.8708C6.85525 27.1374 8.57961 28.1081 10.4393 28.7311C10.5857 28.7807 10.7409 28.7991 10.8949 28.785C11.0489 28.7709 11.1982 28.7248 11.3332 28.6495L15.5013 26.3164L19.6694 28.6481C19.8344 28.74 20.0203 28.7877 20.2091 28.7865C20.33 28.7865 20.4501 28.7668 20.5647 28.7284C22.4228 28.1016 24.1452 27.1282 25.6406 25.8597C25.7627 25.7563 25.861 25.6277 25.9286 25.4827C25.9962 25.3377 26.0315 25.1797 26.0322 25.0197L26.053 20.3631L30.181 18.0106C30.3191 17.932 30.4386 17.8246 30.5315 17.6956C30.6244 17.5667 30.6884 17.4193 30.7193 17.2634C31.095 15.3664 31.0936 13.4141 30.7151 11.5177ZM28.6394 16.3486L24.6858 18.5974C24.5126 18.6959 24.3691 18.8393 24.2706 19.0125C24.1904 19.1509 24.106 19.2976 24.0202 19.436C23.9103 19.6105 23.8518 19.8124 23.8513 20.0186L23.8306 24.4814C22.7679 25.3159 21.584 25.9833 20.3198 26.4603L16.3316 24.2379C16.166 24.1462 15.9798 24.0986 15.7905 24.0995H15.7642C15.5968 24.0995 15.428 24.0995 15.2605 24.0995C15.0625 24.0945 14.8667 24.1423 14.6932 24.2379L10.7022 26.4658C9.43531 25.9924 8.24814 25.3284 7.18173 24.4966L7.16651 20.0407C7.16583 19.8341 7.10735 19.6318 6.99768 19.4567C6.91188 19.3183 6.82747 19.18 6.74859 19.0333C6.65079 18.8574 6.50737 18.7111 6.33344 18.6098L2.37569 16.3556C2.17088 15.06 2.17088 13.7404 2.37569 12.4449L6.32237 10.192C6.4956 10.0935 6.63902 9.95006 6.73752 9.77684C6.81778 9.63846 6.9022 9.49177 6.98799 9.35339C7.09782 9.17888 7.15632 8.97699 7.15682 8.7708L7.17758 4.30795C8.24026 3.47343 9.42417 2.80611 10.6884 2.32907L14.671 4.5515C14.8443 4.64758 15.0403 4.69537 15.2384 4.68988C15.4058 4.68988 15.5747 4.68988 15.7421 4.68988C15.9401 4.69483 16.1359 4.64708 16.3095 4.5515L20.3004 2.32354C21.5673 2.79691 22.7545 3.46096 23.8209 4.29273L23.8361 8.74866C23.8368 8.95525 23.8953 9.15754 24.0049 9.33263C24.0907 9.47101 24.1752 9.6094 24.254 9.75608C24.3518 9.93199 24.4952 10.0783 24.6692 10.1795L28.6269 12.4338C28.8345 13.7303 28.8368 15.0514 28.6338 16.3486H28.6394Z" fill="#BFBFBF"/>
</svg>
