<svg width="66" height="66" viewBox="0 0 66 66" fill="none" xmlns="http://www.w3.org/2000/svg">
<path d="M33 65.7999C51.1 65.7999 65.8 51.1 65.8 33C65.8 14.9 51.1 0.199951 33 0.199951C14.9 0.199951 0.200012 14.9 0.200012 33C0.200012 51.1 14.9 65.7999 33 65.7999ZM33 3.69995C49.1 3.69995 62.3 16.8 62.3 33C62.3 49.1 49.2 62.2999 33 62.2999C16.8 62.2999 3.70001 49.2 3.70001 33C3.70001 16.9 16.9 3.69995 33 3.69995ZM25.3 34.2C24.6 33.5 24.6 32.4 25.3 31.7L34.1 22.8999C34.4 22.5999 34.9 22.3999 35.3 22.3999C35.7 22.3999 36.2 22.5999 36.5 22.8999C37.2 23.5999 37.2 24.6999 36.5 25.3999L28.9 33L36.5 40.6C37.2 41.3 37.2 42.4 36.5 43.1C35.8 43.8 34.7 43.8 34 43.1L25.3 34.2Z" fill="black"/>
</svg>
